<svg width="38" height="30" viewBox="0 0 38 30" fill="none" xmlns="http://www.w3.org/2000/svg">
<mask id="mask0_1_1789" style="mask-type:luminance" maskUnits="userSpaceOnUse" x="0" y="7" width="5" height="16">
<path d="M0 7.69238H4.02818V22.7598H0V7.69238Z" fill="white"/>
</mask>
<g mask="url(#mask0_1_1789)">
<mask id="mask1_1_1789" style="mask-type:luminance" maskUnits="userSpaceOnUse" x="0" y="8" width="2" height="14">
<path d="M1.80451 9.2815C1.80451 8.96367 1.37376 8.8695 1.2457 9.16379C0.442397 10.9766 0 12.9895 0 15.1201C0 17.239 0.442397 19.2519 1.2457 21.0647C1.37376 21.359 1.80451 21.253 1.80451 20.947V9.2815Z" fill="white"/>
</mask>
<g mask="url(#mask1_1_1789)">
<path d="M0 8.86963V21.3591H1.80451V8.86963H0Z" fill="#48E642"/>
</g>
</g>
<mask id="mask2_1_1789" style="mask-type:luminance" maskUnits="userSpaceOnUse" x="1" y="4" width="7" height="22">
<path d="M1.04724 4.67896H7.00802V25.7734H1.04724V4.67896Z" fill="white"/>
</mask>
<g mask="url(#mask2_1_1789)">
<mask id="mask3_1_1789" style="mask-type:luminance" maskUnits="userSpaceOnUse" x="2" y="5" width="5" height="20">
<path d="M6.3089 6.268C6.3089 5.98549 5.97128 5.86777 5.79665 6.09143C3.86405 8.56343 2.69983 11.7064 2.69983 15.1201C2.69983 18.5221 3.8524 21.6533 5.79665 24.1488C5.95964 24.3607 6.3089 24.243 6.3089 23.9722V6.268Z" fill="white"/>
</mask>
<g mask="url(#mask3_1_1789)">
<path d="M2.69983 5.86768V24.3606H6.3089V5.86768H2.69983Z" fill="#48E642"/>
</g>
</g>
<mask id="mask4_1_1789" style="mask-type:luminance" maskUnits="userSpaceOnUse" x="4" y="1" width="9" height="28">
<path d="M4.02795 1.66553H12.9692V28.7869H4.02795V1.66553Z" fill="white"/>
</mask>
<g mask="url(#mask4_1_1789)">
<mask id="mask5_1_1789" style="mask-type:luminance" maskUnits="userSpaceOnUse" x="5" y="2" width="8" height="26">
<path d="M12.6312 27.233V2.9839C12.6312 2.74847 12.3751 2.60721 12.1888 2.7367C8.11407 5.31464 5.41309 9.89372 5.41309 15.1202C5.41309 20.335 8.11407 24.9141 12.1888 27.492C12.3751 27.6097 12.6312 27.4685 12.6312 27.233Z" fill="white"/>
</mask>
<g mask="url(#mask5_1_1789)">
<path d="M5.41321 2.60718V27.6097H12.6314V2.60718H5.41321Z" fill="#48E642"/>
</g>
</g>
<mask id="mask6_1_1789" style="mask-type:luminance" maskUnits="userSpaceOnUse" x="7" y="0" width="32" height="30">
<path d="M7.00854 0.5H38.0001V29.8815H7.00854V0.5Z" fill="white"/>
</mask>
<g mask="url(#mask6_1_1789)">
<mask id="mask7_1_1789" style="mask-type:luminance" maskUnits="userSpaceOnUse" x="9" y="0" width="29" height="30">
<path d="M37.8954 15.1201C37.8954 16.0735 37.8022 17.027 37.6159 17.9687C37.4297 18.8987 37.1619 19.8169 36.7893 20.6997C36.4284 21.5826 35.986 22.4301 35.4621 23.2306C34.9382 24.0193 34.3328 24.7609 33.6692 25.4436C32.994 26.1146 32.2605 26.7267 31.4805 27.2564C30.6888 27.7861 29.8506 28.2334 28.9774 28.5983C28.1043 28.975 27.1962 29.2458 26.2764 29.4341C25.3451 29.6225 24.4021 29.7166 23.459 29.7166C22.5044 29.7166 21.573 29.6225 20.6416 29.4341C19.7102 29.2458 18.8022 28.975 17.929 28.5983C17.0558 28.2334 16.2176 27.7861 15.4376 27.2564C14.6459 26.7267 13.9124 26.1146 13.2488 25.4436C12.5736 24.7609 11.9798 24.0193 11.4559 23.2306C10.9204 22.4301 10.478 21.5826 10.1171 20.6997C9.75616 19.8169 9.47675 18.8987 9.29048 17.9687C9.1042 17.027 9.02271 16.0735 9.02271 15.1201C9.02271 14.1548 9.1042 13.2131 9.29048 12.2714C9.47675 11.3297 9.75616 10.4115 10.1171 9.52863C10.478 8.64577 10.9204 7.79823 11.4559 7.00955C11.9798 6.20909 12.5736 5.46749 13.2488 4.79652C13.9124 4.11378 14.6459 3.51343 15.4376 2.97195C16.2176 2.44223 17.0558 1.99492 17.929 1.63C18.8022 1.26509 19.7102 0.982576 20.6416 0.794233C21.573 0.60589 22.5044 0.511719 23.459 0.511719C24.4021 0.511719 25.3451 0.60589 26.2764 0.794233C27.1962 0.982576 28.1043 1.26509 28.9774 1.63C29.8506 1.99492 30.6888 2.44223 31.4805 2.97195C32.2605 3.51343 32.994 4.11378 33.6692 4.79652C34.3328 5.46749 34.9382 6.20909 35.4621 7.00955C35.986 7.79823 36.4284 8.64577 36.7893 9.52863C37.1619 10.4115 37.4297 11.3297 37.6159 12.2714C37.8022 13.2131 37.8954 14.1548 37.8954 15.1201Z" fill="white"/>
</mask>
<g mask="url(#mask7_1_1789)">
<path d="M9.02271 0.511719V29.7166H37.8954V0.511719H9.02271Z" fill="#48E642"/>
</g>
</g>
</svg>
