<svg width="18" height="19" viewBox="0 0 18 19" fill="none" xmlns="http://www.w3.org/2000/svg">
<path fill-rule="evenodd" clip-rule="evenodd" d="M17.64 9.58578C17.64 8.9476 17.5827 8.33396 17.4764 7.74487H9V11.2262H13.8436C13.635 12.3512 13.0009 13.3044 12.0477 13.9426V16.2008H14.9564C16.6582 14.634 17.64 12.3267 17.64 9.58578Z" fill="#4285F4"/>
<path fill-rule="evenodd" clip-rule="evenodd" d="M9 18.3813C11.43 18.3813 13.4673 17.5754 14.9564 16.2009L12.0477 13.9427C11.2418 14.4827 10.2109 14.8018 9 14.8018C6.65591 14.8018 4.67182 13.2186 3.96409 11.0913H0.957275V13.4231C2.43818 16.3645 5.48182 18.3813 9 18.3813Z" fill="#34A853"/>
<path fill-rule="evenodd" clip-rule="evenodd" d="M3.96409 11.0914C3.78409 10.5514 3.68182 9.9746 3.68182 9.38142C3.68182 8.78824 3.78409 8.21142 3.96409 7.67142V5.3396H0.957273C0.347727 6.5546 0 7.92914 0 9.38142C0 10.8337 0.347727 12.2082 0.957273 13.4232L3.96409 11.0914Z" fill="#FBBC05"/>
<path fill-rule="evenodd" clip-rule="evenodd" d="M9 3.96089C10.3214 3.96089 11.5077 4.41498 12.4405 5.3068L15.0218 2.72544C13.4632 1.27317 11.4259 0.381348 9 0.381348C5.48182 0.381348 2.43818 2.39817 0.957275 5.33953L3.96409 7.67135C4.67182 5.54408 6.65591 3.96089 9 3.96089Z" fill="#EA4335"/>
</svg>
