<svg width="134" height="20" viewBox="0 0 134 20" fill="none" xmlns="http://www.w3.org/2000/svg">
<path d="M14.9403 7.63306C16.3692 7.63306 17.4138 8.0624 18.0785 8.92107C18.7477 9.77975 19.0823 10.9698 19.0823 12.4865V19.6266H15.7542V12.9811C15.7542 11.2778 15.0759 10.4238 13.7194 10.4238C12.8806 10.4238 12.2475 10.7364 11.8202 11.3571C11.3906 11.9731 11.1781 12.9718 11.1781 14.3531V19.6266H7.91329V12.9811C7.91329 11.2778 7.23727 10.4238 5.88749 10.4238C5.04189 10.4238 4.40657 10.7364 3.97925 11.3571C3.54967 11.9731 3.33715 12.9718 3.33715 14.3531V19.6266H0V8.0064H3.33715V10.1158C3.68081 9.37608 4.16239 8.77874 4.78415 8.32373C5.41043 7.86406 6.21306 7.63306 7.18979 7.63306C8.1959 7.63306 9.00758 7.86639 9.62256 8.33307C10.2375 8.79507 10.6649 9.46008 10.9068 10.3304C11.2504 9.52308 11.7433 8.87207 12.3899 8.37973C13.0411 7.88273 13.8912 7.63306 14.9403 7.63306Z" fill="#E9F1FF"/>
<path d="M21.5281 19.6267V3.34912H24.8652V19.6267H21.5281Z" fill="#E9F1FF"/>
<path d="M34.8484 7.63306C36.318 7.63306 37.3829 8.0624 38.0408 8.92107C38.7033 9.77975 39.0356 10.9698 39.0356 12.4865V19.6266H35.6985V13.0278C35.6985 12.0945 35.5131 11.4294 35.1468 11.0304C34.7783 10.6268 34.2515 10.4238 33.5641 10.4238C32.6779 10.4238 31.9928 10.7364 31.5112 11.3571C31.0274 11.9731 30.7877 12.9718 30.7877 14.3531V19.6266H27.4506V8.0064H30.7877V10.2838C31.1495 9.49508 31.6582 8.85574 32.3161 8.3704C32.9786 7.88039 33.8219 7.63306 34.8484 7.63306Z" fill="#E9F1FF"/>
<path d="M47.1413 17.6292C47.8761 17.6292 48.4459 17.4869 48.8506 17.1999C49.253 16.9152 49.5311 16.5535 49.6826 16.1172H52.8841C52.7756 16.7332 52.5223 17.3399 52.1244 17.9372C51.7265 18.5345 51.1206 19.0292 50.3066 19.4212C49.4972 19.8062 48.4187 19.9999 47.069 19.9999C45.6152 19.9999 44.4395 19.7106 43.5419 19.1319C42.6488 18.5485 42.0045 17.7832 41.6065 16.8358C41.2086 15.8908 41.0096 14.8758 41.0096 13.7931C41.0096 12.6615 41.2222 11.6324 41.6518 10.7038C42.0791 9.77042 42.7415 9.02841 43.6414 8.47307C44.5458 7.91306 45.6875 7.63306 47.069 7.63306C48.4979 7.63306 49.6329 7.91773 50.4785 8.4824C51.3286 9.04241 51.9435 9.78909 52.3234 10.7224C52.7077 11.6511 52.9022 12.6638 52.9022 13.7651C52.9022 13.9401 52.9022 14.1081 52.9022 14.2691C52.9022 14.4325 52.8864 14.5748 52.857 14.6985H44.2744C44.383 15.7998 44.6859 16.5652 45.1879 16.9945C45.6943 17.4192 46.3455 17.6292 47.1413 17.6292ZM47.1142 9.95709C46.3183 9.95709 45.6807 10.1508 45.2059 10.5358C44.7357 10.9231 44.4327 11.6138 44.3016 12.6078H49.7278C49.6238 10.8414 48.7534 9.95709 47.1142 9.95709Z" fill="#E9F1FF"/>
<path d="M60.1282 19.6266C59.0656 19.6266 58.2335 19.4726 57.6321 19.1599C57.0285 18.8496 56.6034 18.3829 56.357 17.7599C56.1083 17.1322 55.9862 16.3599 55.9862 15.4452V10.6011H53.9332V8.95843L56.2575 7.97841L57.6321 5.23438H59.3233V8.00641H62.561V10.6011H59.3233V16.8825H62.2535V19.6266H60.1282Z" fill="#E9F1FF"/>
<path d="M80.1583 8.00659H83.2875L80.3121 19.6267H75.6726L73.3936 11.5813L71.1417 19.6267H66.4842L63.5088 8.00659H66.8912L69.0526 17.0694L71.8019 8.00659H75.2657L78.015 17.0414L80.1583 8.00659Z" fill="#E9F1FF"/>
<path d="M90.7116 19.9999C89.2285 19.9999 88.0279 19.7106 87.1122 19.1319C86.1943 18.5485 85.525 17.7832 85.1045 16.8358C84.6817 15.8908 84.4714 14.8758 84.4714 13.7931C84.4714 12.7245 84.6817 11.7188 85.1045 10.7784C85.525 9.84042 86.1943 9.07974 87.1122 8.50107C88.0279 7.92239 89.2285 7.63306 90.7116 7.63306C92.2129 7.63306 93.4202 7.92239 94.3382 8.50107C95.2539 9.07974 95.9163 9.84042 96.3278 10.7784C96.7438 11.7188 96.9518 12.7245 96.9518 13.7931C96.9518 14.8642 96.7438 15.8722 96.3278 16.8172C95.9163 17.7645 95.2539 18.5322 94.3382 19.1225C93.4202 19.7059 92.2129 19.9999 90.7116 19.9999ZM87.8267 13.8118C87.8267 15.0998 88.055 16.0052 88.514 16.5278C88.9707 17.0459 89.7032 17.3025 90.7116 17.3025C91.7358 17.3025 92.4774 17.0459 92.9364 16.5278C93.3931 16.0052 93.6237 15.0998 93.6237 13.8118C93.6237 12.5238 93.3931 11.6231 92.9364 11.1051C92.4774 10.5894 91.7358 10.3304 90.7116 10.3304C89.7032 10.3304 88.9707 10.5894 88.514 11.1051C88.055 11.6231 87.8267 12.5238 87.8267 13.8118Z" fill="#E9F1FF"/>
<path d="M105.776 7.81982H106.527V11.1612H105.414C104.304 11.1612 103.526 11.4832 103.081 12.1225C102.64 12.7572 102.421 13.7326 102.421 15.0439V19.6267H99.0836V8.00649H102.33V10.4892C102.602 9.66785 103.004 9.01917 103.542 8.5385C104.085 8.06016 104.829 7.81982 105.776 7.81982Z" fill="#E9F1FF"/>
<path d="M116.722 19.6267L113.458 15.0719L111.676 16.836V19.6267H108.339V3.34912H111.676V13.4199C112.078 12.8296 112.472 12.3162 112.852 11.8799L116.433 8.00652H120.421V8.09052L115.574 12.9533L120.693 19.6267H116.722Z" fill="#E9F1FF"/>
<path d="M121.429 15.8373H124.467C124.515 16.3973 124.748 16.871 125.164 17.256C125.584 17.6434 126.217 17.8347 127.063 17.8347C127.809 17.8347 128.334 17.711 128.636 17.4614C128.937 17.214 129.089 16.8897 129.089 16.4907C129.089 16.1313 128.982 15.8327 128.772 15.5947C128.56 15.352 128.139 15.1933 127.506 15.1187L124.983 14.792C123.934 14.6497 123.124 14.2926 122.559 13.7186C121.998 13.147 121.718 12.3723 121.718 11.3946C121.718 10.5313 121.935 9.81725 122.369 9.25725C122.808 8.69724 123.414 8.28423 124.187 8.0159C124.958 7.74289 125.842 7.60522 126.837 7.60522C128.349 7.60522 129.582 7.9179 130.536 8.53857C131.494 9.15458 132.023 10.1066 132.127 11.3946H129.043C128.982 10.9163 128.774 10.5266 128.419 10.2279C128.069 9.92459 127.542 9.77059 126.837 9.77059C126.113 9.77059 125.591 9.89659 125.272 10.1439C124.958 10.3936 124.802 10.7016 124.802 11.0679C124.802 11.3666 124.897 11.6233 125.091 11.8333C125.29 12.0386 125.666 12.1786 126.222 12.2533L128.591 12.5333C129.93 12.7083 130.879 13.0933 131.44 13.6906C132.001 14.2833 132.281 15.0977 132.281 16.136C132.281 16.8967 132.112 17.5687 131.775 18.152C131.436 18.7307 130.882 19.1857 130.111 19.5147C129.337 19.8367 128.306 20.0001 127.018 20.0001C125.679 20.0001 124.603 19.8064 123.789 19.4214C122.98 19.0294 122.392 18.516 122.025 17.8814C121.657 17.2467 121.458 16.5653 121.429 15.8373Z" fill="#E9F1FF"/>
<mask id="mask0_1_1833" style="mask-type:luminance" maskUnits="userSpaceOnUse" x="126" y="1" width="2" height="4">
<path d="M126.62 1.42578H127.403V4.41249H126.62V1.42578Z" fill="white"/>
</mask>
<g mask="url(#mask0_1_1833)">
<mask id="mask1_1_1833" style="mask-type:luminance" maskUnits="userSpaceOnUse" x="126" y="1" width="1" height="4">
<path d="M126.971 1.74088C126.971 1.67788 126.887 1.65922 126.862 1.71755C126.706 2.07689 126.62 2.47589 126.62 2.89823C126.62 3.31824 126.706 3.71724 126.862 4.07658C126.887 4.13492 126.971 4.11391 126.971 4.05325V1.74088Z" fill="white"/>
</mask>
<g mask="url(#mask1_1_1833)">
<path d="M126.62 1.65918V4.13488H126.971V1.65918H126.62Z" fill="#F0FEEF"/>
</g>
</g>
<mask id="mask2_1_1833" style="mask-type:luminance" maskUnits="userSpaceOnUse" x="126" y="0" width="2" height="6">
<path d="M126.824 0.828369H127.981V5.00976H126.824V0.828369Z" fill="white"/>
</mask>
<g mask="url(#mask2_1_1833)">
<mask id="mask3_1_1833" style="mask-type:luminance" maskUnits="userSpaceOnUse" x="127" y="1" width="1" height="4">
<path d="M127.846 1.14341C127.846 1.08741 127.78 1.06408 127.746 1.10841C127.371 1.59842 127.145 2.22142 127.145 2.8981C127.145 3.57244 127.369 4.19312 127.746 4.68779C127.778 4.72979 127.846 4.70646 127.846 4.65279V1.14341Z" fill="white"/>
</mask>
<g mask="url(#mask3_1_1833)">
<path d="M127.145 1.06396V4.72968H127.846V1.06396H127.145Z" fill="#F0FEEF"/>
</g>
</g>
<mask id="mask4_1_1833" style="mask-type:luminance" maskUnits="userSpaceOnUse" x="127" y="0" width="3" height="6">
<path d="M127.402 0.230957H129.139V5.60703H127.402V0.230957Z" fill="white"/>
</mask>
<g mask="url(#mask4_1_1833)">
<mask id="mask5_1_1833" style="mask-type:luminance" maskUnits="userSpaceOnUse" x="127" y="0" width="3" height="6">
<path d="M129.073 5.29908V0.492346C129.073 0.445679 129.024 0.417679 128.987 0.443346C128.196 0.954353 127.672 1.86203 127.672 2.89805C127.672 3.93173 128.196 4.83941 128.987 5.35041C129.024 5.37375 129.073 5.34575 129.073 5.29908Z" fill="white"/>
</mask>
<g mask="url(#mask5_1_1833)">
<path d="M127.672 0.417725V5.37379H129.073V0.417725H127.672Z" fill="#F0FEEF"/>
</g>
</g>
<mask id="mask6_1_1833" style="mask-type:luminance" maskUnits="userSpaceOnUse" x="127" y="0" width="7" height="6">
<path d="M127.981 0H134V5.82408H127.981V0Z" fill="white"/>
</mask>
<g mask="url(#mask6_1_1833)">
<mask id="mask7_1_1833" style="mask-type:luminance" maskUnits="userSpaceOnUse" x="128" y="0" width="6" height="6">
<path d="M133.98 2.89815C133.98 3.08715 133.961 3.27615 133.925 3.46282C133.889 3.64716 133.837 3.82916 133.765 4.00416C133.695 4.17916 133.609 4.34717 133.507 4.50584C133.405 4.66217 133.288 4.80917 133.159 4.94451C133.028 5.07751 132.885 5.19884 132.734 5.30385C132.58 5.40885 132.417 5.49752 132.248 5.56985C132.078 5.64452 131.902 5.69818 131.723 5.73552C131.542 5.77285 131.359 5.79152 131.176 5.79152C130.991 5.79152 130.81 5.77285 130.629 5.73552C130.448 5.69818 130.272 5.64452 130.102 5.56985C129.932 5.49752 129.77 5.40885 129.618 5.30385C129.464 5.19884 129.322 5.07751 129.193 4.94451C129.062 4.80917 128.947 4.66217 128.845 4.50584C128.741 4.34717 128.655 4.17916 128.585 4.00416C128.515 3.82916 128.461 3.64716 128.424 3.46282C128.388 3.27615 128.372 3.08715 128.372 2.89815C128.372 2.70681 128.388 2.52014 128.424 2.33347C128.461 2.1468 128.515 1.9648 128.585 1.7898C128.655 1.6148 128.741 1.44679 128.845 1.29046C128.947 1.13179 129.062 0.984788 129.193 0.851786C129.322 0.716451 129.464 0.597449 129.618 0.490115C129.77 0.385113 129.932 0.296446 130.102 0.224111C130.272 0.151777 130.448 0.095776 130.629 0.0584422C130.81 0.0211083 130.991 0.00244141 131.176 0.00244141C131.359 0.00244141 131.542 0.0211083 131.723 0.0584422C131.902 0.095776 132.078 0.151777 132.248 0.224111C132.417 0.296446 132.58 0.385113 132.734 0.490115C132.885 0.597449 133.028 0.716451 133.159 0.851786C133.288 0.984788 133.405 1.13179 133.507 1.29046C133.609 1.44679 133.695 1.6148 133.765 1.7898C133.837 1.9648 133.889 2.1468 133.925 2.33347C133.961 2.52014 133.98 2.70681 133.98 2.89815Z" fill="white"/>
</mask>
<g mask="url(#mask7_1_1833)">
<path d="M128.372 0.00244141V5.79152H133.98V0.00244141H128.372Z" fill="#F0FEEF"/>
</g>
</g>
</svg>
