<svg width="48" height="48" viewBox="0 0 48 48" fill="none" xmlns="http://www.w3.org/2000/svg">
<path d="M12.006 10.2501C11.9703 9.45096 12.0948 8.65274 12.3721 7.90241C12.6494 7.15207 13.074 6.46476 13.6208 5.88091C14.1677 5.29706 14.8257 4.82844 15.5563 4.50263C16.2869 4.17682 17.0752 4.0004 17.875 3.98372C18.6748 3.96705 19.4698 4.11048 20.2133 4.40556C20.9569 4.70065 21.6339 5.14143 22.2046 5.70199C22.7752 6.26255 23.2281 6.93157 23.5364 7.6697C23.8448 8.40783 24.0024 9.20016 24 10.0001V36.0001M12.006 10.2501C10.8304 10.5524 9.73903 11.1182 8.81449 11.9047C7.88995 12.6912 7.15651 13.6778 6.66971 14.7898C6.18292 15.9017 5.95555 17.1099 6.0048 18.3227C6.05406 19.5356 6.37866 20.7213 6.95403 21.7901C5.94239 22.612 5.14688 23.6686 4.6367 24.868C4.12653 26.0674 3.91714 27.3733 4.02675 28.6721C4.13637 29.9709 4.56166 31.2232 5.26564 32.3201C5.96962 33.4171 6.93095 34.3254 8.06603 34.9661C7.92586 36.0506 8.00951 37.1523 8.3118 38.2031C8.6141 39.254 9.12862 40.2318 9.8236 41.076C10.5186 41.9203 11.3792 42.613 12.3525 43.1116C13.3257 43.6102 14.3908 43.904 15.482 43.9748C16.5732 44.0456 17.6673 43.8919 18.6968 43.5233C19.7263 43.1547 20.6693 42.579 21.4675 41.8316C22.2658 41.0843 22.9024 40.1812 23.338 39.1782C23.7735 38.1752 23.9989 37.0936 24 36.0001M12.006 10.2501C12.0456 11.2176 12.3187 12.1611 12.802 13.0001M24 36.0001H36C37.0609 36.0001 38.0783 36.4215 38.8285 37.1717C39.5786 37.9218 40 38.9392 40 40.0001V42.0001M18 26.0001C19.6791 25.4094 21.1454 24.3341 22.2134 22.9101C23.2814 21.4861 23.9031 19.7774 24 18.0001M6.95403 21.7921C7.31991 21.4941 7.71143 21.2291 8.12403 21.0001M12 36.0001C10.6217 36.0007 9.26656 35.6453 8.06603 34.9681M24 26.0001H32M24 16.0001H40M32 16.0001V10.0001C32 8.93923 32.4215 7.92182 33.1716 7.17167C33.9217 6.42153 34.9392 6.0001 36 6.0001M33 26.0001C33 26.5524 32.5523 27.0001 32 27.0001C31.4477 27.0001 31 26.5524 31 26.0001C31 25.4478 31.4477 25.0001 32 25.0001C32.5523 25.0001 33 25.4478 33 26.0001ZM37 6.0001C37 6.55239 36.5523 7.0001 36 7.0001C35.4477 7.0001 35 6.55239 35 6.0001C35 5.44782 35.4477 5.0001 36 5.0001C36.5523 5.0001 37 5.44782 37 6.0001ZM41 42.0001C41 42.5524 40.5523 43.0001 40 43.0001C39.4477 43.0001 39 42.5524 39 42.0001C39 41.4478 39.4477 41.0001 40 41.0001C40.5523 41.0001 41 41.4478 41 42.0001ZM41 16.0001C41 16.5524 40.5523 17.0001 40 17.0001C39.4477 17.0001 39 16.5524 39 16.0001C39 15.4478 39.4477 15.0001 40 15.0001C40.5523 15.0001 41 15.4478 41 16.0001Z" stroke="url(#paint0_linear_1_3445)" stroke-width="3" stroke-linecap="round" stroke-linejoin="round"/>
<defs>
<linearGradient id="paint0_linear_1_3445" x1="22.4992" y1="3.98072" x2="22.4992" y2="43.9899" gradientUnits="userSpaceOnUse">
<stop stop-color="#3954FF"/>
<stop offset="1" stop-color="#1ECE19"/>
</linearGradient>
</defs>
</svg>
