<svg width="126" height="20" viewBox="0 0 126 20" fill="none" xmlns="http://www.w3.org/2000/svg">
<path d="M14.0483 7.75146C15.3919 7.75146 16.3741 8.15934 16.9992 8.97508C17.6284 9.79083 17.9431 10.9213 17.9431 12.3622V19.1453H14.8137V12.8321C14.8137 11.2139 14.1759 10.4026 12.9003 10.4026C12.1116 10.4026 11.5163 10.6997 11.1145 11.2893C10.7106 11.8745 10.5107 12.8233 10.5107 14.1356V19.1453H7.44085V12.8321C7.44085 11.2139 6.80519 10.4026 5.53599 10.4026C4.74089 10.4026 4.14349 10.6997 3.74169 11.2893C3.33775 11.8745 3.13791 12.8233 3.13791 14.1356V19.1453H0V8.10614H3.13791V10.11C3.46106 9.40734 3.91389 8.83986 4.49853 8.40761C5.08742 7.97092 5.84213 7.75146 6.76055 7.75146C7.7066 7.75146 8.46982 7.97313 9.04808 8.41647C9.62634 8.85538 10.0281 9.48714 10.2556 10.314C10.5788 9.54699 11.0422 8.92853 11.6502 8.46081C12.2625 7.98865 13.0619 7.75146 14.0483 7.75146Z" fill="#1722FF"/>
<path d="M20.2429 19.1453V3.68164H23.3808V19.1453H20.2429Z" fill="#1722FF"/>
<path d="M32.7679 7.75146C34.1498 7.75146 35.1511 8.15934 35.7698 8.97508C36.3927 9.79083 36.7052 10.9213 36.7052 12.3622V19.1453H33.5673V12.8765C33.5673 11.9898 33.3929 11.358 33.0485 10.979C32.702 10.5955 32.2066 10.4026 31.5604 10.4026C30.727 10.4026 30.0828 10.6997 29.63 11.2893C29.175 11.8745 28.9497 12.8233 28.9497 14.1356V19.1453H25.8118V8.10614H28.9497V10.2696C29.2898 9.52039 29.7682 8.91301 30.3868 8.45194C31.0097 7.98643 31.8027 7.75146 32.7679 7.75146Z" fill="#1722FF"/>
<path d="M44.3269 17.2478C45.0179 17.2478 45.5536 17.1126 45.9342 16.8399C46.3126 16.5695 46.5741 16.2259 46.7165 15.8114H49.7269C49.6248 16.3966 49.3867 16.9729 49.0125 17.5404C48.6384 18.1079 48.0686 18.5778 47.3033 18.9502C46.5422 19.316 45.5281 19.5 44.2589 19.5C42.8919 19.5 41.7864 19.2251 40.9424 18.6753C40.1027 18.1212 39.4968 17.3941 39.1226 16.4941C38.7484 15.5964 38.5613 14.6321 38.5613 13.6035C38.5613 12.5284 38.7612 11.5509 39.1651 10.6686C39.5669 9.78196 40.1898 9.07705 41.036 8.54948C41.8863 8.01747 42.9599 7.75146 44.2589 7.75146C45.6025 7.75146 46.6697 8.0219 47.4649 8.55834C48.2642 9.09035 48.8425 9.79969 49.1996 10.6864C49.561 11.5686 49.7439 12.5307 49.7439 13.5769C49.7439 13.7432 49.7439 13.9028 49.7439 14.0558C49.7439 14.2109 49.729 14.3461 49.7014 14.4636H41.6312C41.7333 15.5099 42.0181 16.237 42.4901 16.6449C42.9663 17.0483 43.5786 17.2478 44.3269 17.2478ZM44.3014 9.95929C43.5531 9.95929 42.9536 10.1433 42.5071 10.509C42.0649 10.877 41.78 11.5331 41.6567 12.4775H46.759C46.6612 10.7994 45.8427 9.95929 44.3014 9.95929Z" fill="#1722FF"/>
<path d="M56.5385 19.1452C55.5393 19.1452 54.757 18.9989 54.1914 18.7019C53.6238 18.4071 53.2241 17.9637 52.9924 17.3719C52.7586 16.7756 52.6437 16.0419 52.6437 15.1729V10.5711H50.7134V9.0105L52.8989 8.07949L54.1914 5.47266H55.7817V8.10609H58.826V10.5711H55.7817V16.5384H58.5369V19.1452H56.5385Z" fill="#1722FF"/>
<path d="M75.3728 8.1062H78.3151L75.5173 19.1453H71.1549L69.0119 11.5022L66.8945 19.1453H62.515L59.7172 8.1062H62.8977L64.9301 16.7159L67.5152 8.1062H70.7722L73.3574 16.6892L75.3728 8.1062Z" fill="#1722FF"/>
<path d="M85.296 19.5C83.9014 19.5 82.7725 19.2251 81.9115 18.6753C81.0483 18.1212 80.419 17.3941 80.0236 16.4941C79.6261 15.5964 79.4283 14.6321 79.4283 13.6035C79.4283 12.5883 79.6261 11.6329 80.0236 10.7396C80.419 9.84846 81.0483 9.12582 81.9115 8.57608C82.7725 8.02634 83.9014 7.75146 85.296 7.75146C86.7076 7.75146 87.8429 8.02634 88.706 8.57608C89.567 9.12582 90.1899 9.84846 90.5769 10.7396C90.968 11.6329 91.1636 12.5883 91.1636 13.6035C91.1636 14.621 90.968 15.5786 90.5769 16.4764C90.1899 17.3764 89.567 18.1057 88.706 18.6665C87.8429 19.2207 86.7076 19.5 85.296 19.5ZM82.5833 13.6213C82.5833 14.8449 82.798 15.705 83.2296 16.2015C83.659 16.6936 84.3478 16.9375 85.296 16.9375C86.259 16.9375 86.9564 16.6936 87.3879 16.2015C87.8174 15.705 88.0342 14.8449 88.0342 13.6213C88.0342 12.3977 87.8174 11.542 87.3879 11.0499C86.9564 10.56 86.259 10.314 85.296 10.314C84.3478 10.314 83.659 10.56 83.2296 11.0499C82.798 11.542 82.5833 12.3977 82.5833 13.6213Z" fill="#1722FF"/>
<path d="M99.461 7.92871H100.167V11.103H99.1208C98.077 11.103 97.3457 11.4089 96.9268 12.0163C96.5123 12.6192 96.3061 13.5458 96.3061 14.7916V19.1452H93.1682V8.10605H96.221V10.4646C96.4761 9.68433 96.8546 9.06809 97.3605 8.61145C97.8708 8.15703 98.5702 7.92871 99.461 7.92871Z" fill="#1722FF"/>
<path d="M109.754 19.1453L106.684 14.8183L105.009 16.4941V19.1453H101.871V3.68164H105.009V13.2489C105.387 12.6881 105.757 12.2004 106.114 11.7859L109.482 8.10617H113.232V8.18597L108.674 12.8056L113.487 19.1453H109.754Z" fill="#1722FF"/>
<path d="M114.179 15.5454H117.036C117.081 16.0774 117.3 16.5274 117.691 16.8931C118.087 17.2611 118.682 17.4429 119.477 17.4429C120.179 17.4429 120.672 17.3254 120.957 17.0882C121.239 16.8532 121.382 16.5451 121.382 16.166C121.382 15.8247 121.282 15.5409 121.084 15.3148C120.884 15.0843 120.489 14.9336 119.894 14.8626L117.521 14.5523C116.535 14.4171 115.774 14.0779 115.242 13.5326C114.715 12.9895 114.451 12.2536 114.451 11.3248C114.451 10.5046 114.655 9.82628 115.064 9.29427C115.476 8.76227 116.046 8.36991 116.773 8.11499C117.498 7.85564 118.329 7.72485 119.264 7.72485C120.687 7.72485 121.845 8.02189 122.743 8.61153C123.644 9.19674 124.141 10.1012 124.239 11.3248H121.339C121.282 10.8703 121.086 10.5002 120.753 10.2164C120.423 9.92825 119.928 9.78195 119.264 9.78195C118.584 9.78195 118.093 9.90165 117.793 10.1366C117.498 10.3738 117.351 10.6664 117.351 11.0144C117.351 11.2982 117.44 11.542 117.623 11.7415C117.81 11.9366 118.163 12.0696 118.686 12.1405L120.914 12.4065C122.173 12.5728 123.066 12.9385 123.593 13.506C124.12 14.069 124.384 14.8427 124.384 15.8291C124.384 16.5517 124.224 17.1901 123.908 17.7443C123.589 18.2941 123.068 18.7263 122.343 19.0389C121.616 19.3448 120.646 19.4999 119.435 19.4999C118.176 19.4999 117.164 19.316 116.399 18.9502C115.638 18.5778 115.085 18.0901 114.74 17.4872C114.394 16.8842 114.207 16.237 114.179 15.5454Z" fill="#1722FF"/>
<mask id="mask0_1_1757" style="mask-type:luminance" maskUnits="userSpaceOnUse" x="119" y="1" width="1" height="4">
<path d="M119.061 1.85449H119.796V4.69186H119.061V1.85449Z" fill="white"/>
</mask>
<g mask="url(#mask0_1_1757)">
<mask id="mask1_1_1757" style="mask-type:luminance" maskUnits="userSpaceOnUse" x="119" y="2" width="1" height="3">
<path d="M119.39 2.15373C119.39 2.09388 119.312 2.07614 119.288 2.13156C119.142 2.47293 119.061 2.85199 119.061 3.25321C119.061 3.65222 119.142 4.03127 119.288 4.37264C119.312 4.42806 119.39 4.40811 119.39 4.35048V2.15373Z" fill="white"/>
</mask>
<g mask="url(#mask1_1_1757)">
<path d="M119.061 2.07617V4.42809H119.39V2.07617H119.061Z" fill="#48E642"/>
</g>
</g>
<mask id="mask2_1_1757" style="mask-type:luminance" maskUnits="userSpaceOnUse" x="119" y="1" width="2" height="5">
<path d="M119.252 1.28687H120.341V5.25919H119.252V1.28687Z" fill="white"/>
</mask>
<g mask="url(#mask2_1_1757)">
<mask id="mask3_1_1757" style="mask-type:luminance" maskUnits="userSpaceOnUse" x="119" y="1" width="2" height="4">
<path d="M120.213 1.58606C120.213 1.53286 120.151 1.51069 120.12 1.55281C119.767 2.01831 119.554 2.61017 119.554 3.25301C119.554 3.89364 119.765 4.48328 120.12 4.95322C120.149 4.99312 120.213 4.97095 120.213 4.91997V1.58606Z" fill="white"/>
</mask>
<g mask="url(#mask3_1_1757)">
<path d="M119.554 1.51074V4.99317H120.213V1.51074H119.554Z" fill="#48E642"/>
</g>
</g>
<mask id="mask4_1_1757" style="mask-type:luminance" maskUnits="userSpaceOnUse" x="119" y="0" width="3" height="6">
<path d="M119.796 0.719482H121.429V5.82675H119.796V0.719482Z" fill="white"/>
</mask>
<g mask="url(#mask4_1_1757)">
<mask id="mask5_1_1757" style="mask-type:luminance" maskUnits="userSpaceOnUse" x="120" y="0" width="2" height="6">
<path d="M121.367 5.53408V0.96768C121.367 0.923346 121.321 0.896746 121.287 0.92113C120.543 1.40659 120.049 2.26888 120.049 3.25309C120.049 4.23509 120.543 5.09739 121.287 5.58284C121.321 5.60501 121.367 5.57841 121.367 5.53408Z" fill="white"/>
</mask>
<g mask="url(#mask5_1_1757)">
<path d="M120.049 0.896729V5.60499H121.367V0.896729H120.049Z" fill="#48E642"/>
</g>
</g>
<mask id="mask6_1_1757" style="mask-type:luminance" maskUnits="userSpaceOnUse" x="120" y="0" width="6" height="7">
<path d="M120.341 0.5H126V6.03287H120.341V0.5Z" fill="white"/>
</mask>
<g mask="url(#mask6_1_1757)">
<mask id="mask7_1_1757" style="mask-type:luminance" maskUnits="userSpaceOnUse" x="120" y="0" width="6" height="7">
<path d="M125.981 3.25312C125.981 3.43267 125.964 3.61222 125.93 3.78956C125.896 3.96468 125.847 4.13758 125.779 4.30383C125.713 4.47008 125.632 4.62969 125.537 4.78042C125.441 4.92894 125.33 5.06859 125.209 5.19716C125.086 5.32351 124.952 5.43878 124.809 5.53853C124.665 5.63828 124.512 5.72252 124.352 5.79123C124.193 5.86217 124.027 5.91315 123.859 5.94862C123.689 5.98409 123.517 6.00182 123.345 6.00182C123.17 6.00182 123 5.98409 122.83 5.94862C122.66 5.91315 122.494 5.86217 122.335 5.79123C122.175 5.72252 122.022 5.63828 121.88 5.53853C121.735 5.43878 121.601 5.32351 121.48 5.19716C121.357 5.06859 121.248 4.92894 121.153 4.78042C121.055 4.62969 120.974 4.47008 120.908 4.30383C120.842 4.13758 120.791 3.96468 120.757 3.78956C120.723 3.61222 120.708 3.43267 120.708 3.25312C120.708 3.07135 120.723 2.89401 120.757 2.71668C120.791 2.53934 120.842 2.36644 120.908 2.20019C120.974 2.03393 121.055 1.87433 121.153 1.72581C121.248 1.57508 121.357 1.43543 121.48 1.30907C121.601 1.18051 121.735 1.06745 121.88 0.965487C122.022 0.865735 122.175 0.781501 122.335 0.712783C122.494 0.644066 122.66 0.590865 122.83 0.555398C123 0.519931 123.17 0.502197 123.345 0.502197C123.517 0.502197 123.689 0.519931 123.859 0.555398C124.027 0.590865 124.193 0.644066 124.352 0.712783C124.512 0.781501 124.665 0.865735 124.809 0.965487C124.952 1.06745 125.086 1.18051 125.209 1.30907C125.33 1.43543 125.441 1.57508 125.537 1.72581C125.632 1.87433 125.713 2.03393 125.779 2.20019C125.847 2.36644 125.896 2.53934 125.93 2.71668C125.964 2.89401 125.981 3.07135 125.981 3.25312Z" fill="white"/>
</mask>
<g mask="url(#mask7_1_1757)">
<path d="M120.708 0.502197V6.00182H125.981V0.502197H120.708Z" fill="#48E642"/>
</g>
</g>
</svg>
