<svg width="231" height="88" viewBox="0 0 231 88" fill="none" xmlns="http://www.w3.org/2000/svg">
<path d="M22.0483 15.2515C23.3919 15.2515 24.3741 15.6593 24.9992 16.4751C25.6284 17.2908 25.9431 18.4213 25.9431 19.8622V26.6453H22.8137V20.3321C22.8137 18.7139 22.1759 17.9026 20.9003 17.9026C20.1116 17.9026 19.5163 18.1997 19.1145 18.7893C18.7106 19.3745 18.5107 20.3233 18.5107 21.6356V26.6453H15.4409V20.3321C15.4409 18.7139 14.8052 17.9026 13.536 17.9026C12.7409 17.9026 12.1435 18.1997 11.7417 18.7893C11.3378 19.3745 11.1379 20.3233 11.1379 21.6356V26.6453H8V15.6061H11.1379V17.61C11.4611 16.9073 11.9139 16.3399 12.4985 15.9076C13.0874 15.4709 13.8421 15.2515 14.7605 15.2515C15.7066 15.2515 16.4698 15.4731 17.0481 15.9165C17.6263 16.3554 18.0281 16.9871 18.2556 17.814C18.5788 17.047 19.0422 16.4285 19.6502 15.9608C20.2625 15.4887 21.0619 15.2515 22.0483 15.2515Z" fill="#1722FF"/>
<path d="M28.2429 26.6453V11.1816H31.3808V26.6453H28.2429Z" fill="#1722FF"/>
<path d="M40.7679 15.2515C42.1498 15.2515 43.1511 15.6593 43.7698 16.4751C44.3927 17.2908 44.7052 18.4213 44.7052 19.8622V26.6453H41.5673V20.3765C41.5673 19.4898 41.3929 18.858 41.0485 18.479C40.702 18.0955 40.2066 17.9026 39.5604 17.9026C38.727 17.9026 38.0828 18.1997 37.63 18.7893C37.175 19.3745 36.9497 20.3233 36.9497 21.6356V26.6453H33.8118V15.6061H36.9497V17.7696C37.2898 17.0204 37.7682 16.413 38.3868 15.9519C39.0097 15.4864 39.8027 15.2515 40.7679 15.2515Z" fill="#1722FF"/>
<path d="M52.3269 24.7478C53.0178 24.7478 53.5536 24.6126 53.9341 24.3399C54.3125 24.0695 54.574 23.7259 54.7165 23.3114H57.7268C57.6248 23.8966 57.3867 24.4729 57.0125 25.0404C56.6383 25.6079 56.0686 26.0778 55.3032 26.4502C54.5421 26.816 53.528 27 52.2588 27C50.8919 27 49.7864 26.7251 48.9424 26.1753C48.1026 25.6212 47.4967 24.8941 47.1225 23.9941C46.7484 23.0964 46.5613 22.1321 46.5613 21.1035C46.5613 20.0284 46.7611 19.0509 47.1651 18.1686C47.5669 17.282 48.1898 16.577 49.0359 16.0495C49.8863 15.5175 50.9599 15.2515 52.2588 15.2515C53.6025 15.2515 54.6697 15.5219 55.4648 16.0583C56.2641 16.5903 56.8424 17.2997 57.1996 18.1864C57.561 19.0686 57.7438 20.0307 57.7438 21.0769C57.7438 21.2432 57.7438 21.4028 57.7438 21.5558C57.7438 21.7109 57.7289 21.8461 57.7013 21.9636H49.6312C49.7332 23.0099 50.0181 23.737 50.49 24.1449C50.9663 24.5483 51.5785 24.7478 52.3269 24.7478ZM52.3014 17.4593C51.553 17.4593 50.9535 17.6433 50.5071 18.009C50.0649 18.377 49.78 19.0331 49.6567 19.9775H54.759C54.6612 18.2994 53.8427 17.4593 52.3014 17.4593Z" fill="#1722FF"/>
<path d="M64.5385 26.6452C63.5393 26.6452 62.757 26.4989 62.1914 26.2019C61.6238 25.9071 61.2241 25.4637 60.9924 24.8719C60.7586 24.2756 60.6437 23.5419 60.6437 22.6729V18.0711H58.7134V16.5105L60.8989 15.5795L62.1914 12.9727H63.7817V15.6061H66.826V18.0711H63.7817V24.0384H66.5369V26.6452H64.5385Z" fill="#1722FF"/>
<path d="M83.3728 15.6062H86.3152L83.5174 26.6453H79.1549L77.012 19.0022L74.8945 26.6453H70.515L67.7173 15.6062H70.8977L72.9301 24.2159L75.5153 15.6062H78.7723L81.3574 24.1892L83.3728 15.6062Z" fill="#1722FF"/>
<path d="M93.296 27C91.9014 27 90.7725 26.7251 89.9115 26.1753C89.0483 25.6212 88.419 24.8941 88.0236 23.9941C87.6261 23.0964 87.4283 22.1321 87.4283 21.1035C87.4283 20.0883 87.6261 19.1329 88.0236 18.2396C88.419 17.3485 89.0483 16.6258 89.9115 16.0761C90.7725 15.5263 91.9014 15.2515 93.296 15.2515C94.7076 15.2515 95.8429 15.5263 96.706 16.0761C97.567 16.6258 98.1899 17.3485 98.5769 18.2396C98.968 19.1329 99.1636 20.0883 99.1636 21.1035C99.1636 22.121 98.968 23.0786 98.5769 23.9764C98.1899 24.8764 97.567 25.6057 96.706 26.1665C95.8429 26.7207 94.7076 27 93.296 27ZM90.5833 21.1213C90.5833 22.3449 90.798 23.205 91.2296 23.7015C91.659 24.1936 92.3478 24.4375 93.296 24.4375C94.259 24.4375 94.9564 24.1936 95.3879 23.7015C95.8174 23.205 96.0342 22.3449 96.0342 21.1213C96.0342 19.8977 95.8174 19.042 95.3879 18.5499C94.9564 18.06 94.259 17.814 93.296 17.814C92.3478 17.814 91.659 18.06 91.2296 18.5499C90.798 19.042 90.5833 19.8977 90.5833 21.1213Z" fill="#1722FF"/>
<path d="M107.461 15.4287H108.167V18.603H107.121C106.077 18.603 105.346 18.9089 104.927 19.5163C104.512 20.1192 104.306 21.0458 104.306 22.2916V26.6452H101.168V15.606H104.221V17.9646C104.476 17.1843 104.855 16.5681 105.361 16.1115C105.871 15.657 106.57 15.4287 107.461 15.4287Z" fill="#1722FF"/>
<path d="M117.754 26.6453L114.684 22.3183L113.009 23.9941V26.6453H109.871V11.1816H113.009V20.7489C113.387 20.1881 113.757 19.7004 114.114 19.2859L117.482 15.6062H121.232V15.686L116.674 20.3056L121.487 26.6453H117.754Z" fill="#1722FF"/>
<path d="M122.179 23.0454H125.036C125.081 23.5774 125.3 24.0274 125.691 24.3931C126.087 24.7611 126.682 24.9429 127.477 24.9429C128.179 24.9429 128.672 24.8254 128.957 24.5882C129.239 24.3532 129.382 24.0451 129.382 23.666C129.382 23.3247 129.282 23.0409 129.084 22.8148C128.884 22.5843 128.489 22.4336 127.894 22.3626L125.521 22.0523C124.535 21.9171 123.774 21.5779 123.242 21.0326C122.715 20.4895 122.451 19.7536 122.451 18.8248C122.451 18.0046 122.655 17.3263 123.064 16.7943C123.476 16.2623 124.046 15.8699 124.773 15.615C125.498 15.3556 126.329 15.2249 127.264 15.2249C128.687 15.2249 129.845 15.5219 130.743 16.1115C131.644 16.6967 132.141 17.6012 132.239 18.8248H129.339C129.282 18.3703 129.086 18.0002 128.753 17.7164C128.423 17.4282 127.928 17.2819 127.264 17.2819C126.584 17.2819 126.093 17.4016 125.793 17.6366C125.498 17.8738 125.351 18.1664 125.351 18.5144C125.351 18.7982 125.44 19.042 125.623 19.2415C125.81 19.4366 126.163 19.5696 126.686 19.6405L128.914 19.9065C130.173 20.0728 131.066 20.4385 131.593 21.006C132.12 21.569 132.384 22.3427 132.384 23.3291C132.384 24.0517 132.224 24.6901 131.908 25.2443C131.589 25.7941 131.068 26.2263 130.343 26.5389C129.616 26.8448 128.646 26.9999 127.435 26.9999C126.176 26.9999 125.164 26.816 124.399 26.4502C123.638 26.0778 123.085 25.5901 122.74 24.9872C122.394 24.3842 122.207 23.737 122.179 23.0454Z" fill="#1722FF"/>
<mask id="mask0_1_988" style="mask-type:luminance" maskUnits="userSpaceOnUse" x="127" y="9" width="1" height="4">
<path d="M127.061 9.35449H127.796V12.1919H127.061V9.35449Z" fill="white"/>
</mask>
<g mask="url(#mask0_1_988)">
<mask id="mask1_1_988" style="mask-type:luminance" maskUnits="userSpaceOnUse" x="127" y="9" width="1" height="3">
<path d="M127.39 9.65373C127.39 9.59388 127.312 9.57614 127.288 9.63156C127.142 9.97293 127.061 10.352 127.061 10.7532C127.061 11.1522 127.142 11.5313 127.288 11.8726C127.312 11.9281 127.39 11.9081 127.39 11.8505V9.65373Z" fill="white"/>
</mask>
<g mask="url(#mask1_1_988)">
<path d="M127.061 9.57617V11.9281H127.39V9.57617H127.061Z" fill="#48E642"/>
</g>
</g>
<mask id="mask2_1_988" style="mask-type:luminance" maskUnits="userSpaceOnUse" x="127" y="8" width="2" height="5">
<path d="M127.252 8.78687H128.341V12.7592H127.252V8.78687Z" fill="white"/>
</mask>
<g mask="url(#mask2_1_988)">
<mask id="mask3_1_988" style="mask-type:luminance" maskUnits="userSpaceOnUse" x="127" y="9" width="2" height="4">
<path d="M128.213 9.08606C128.213 9.03286 128.151 9.01069 128.12 9.05281C127.767 9.51831 127.554 10.1102 127.554 10.753C127.554 11.3936 127.765 11.9833 128.12 12.4532C128.149 12.4931 128.213 12.471 128.213 12.42V9.08606Z" fill="white"/>
</mask>
<g mask="url(#mask3_1_988)">
<path d="M127.554 9.01074V12.4932H128.213V9.01074H127.554Z" fill="#48E642"/>
</g>
</g>
<mask id="mask4_1_988" style="mask-type:luminance" maskUnits="userSpaceOnUse" x="127" y="8" width="3" height="6">
<path d="M127.796 8.21948H129.429V13.3268H127.796V8.21948Z" fill="white"/>
</mask>
<g mask="url(#mask4_1_988)">
<mask id="mask5_1_988" style="mask-type:luminance" maskUnits="userSpaceOnUse" x="128" y="8" width="2" height="6">
<path d="M129.367 13.0341V8.46768C129.367 8.42335 129.321 8.39675 129.287 8.42113C128.543 8.90659 128.049 9.76888 128.049 10.7531C128.049 11.7351 128.543 12.5974 129.287 13.0828C129.321 13.105 129.367 13.0784 129.367 13.0341Z" fill="white"/>
</mask>
<g mask="url(#mask5_1_988)">
<path d="M128.049 8.39673V13.105H129.367V8.39673H128.049Z" fill="#48E642"/>
</g>
</g>
<mask id="mask6_1_988" style="mask-type:luminance" maskUnits="userSpaceOnUse" x="128" y="8" width="6" height="6">
<path d="M128.341 8H134V13.5329H128.341V8Z" fill="white"/>
</mask>
<g mask="url(#mask6_1_988)">
<mask id="mask7_1_988" style="mask-type:luminance" maskUnits="userSpaceOnUse" x="128" y="8" width="6" height="6">
<path d="M133.981 10.7531C133.981 10.9327 133.964 11.1122 133.93 11.2896C133.896 11.4647 133.847 11.6376 133.779 11.8038C133.713 11.9701 133.632 12.1297 133.537 12.2804C133.441 12.4289 133.33 12.5686 133.209 12.6972C133.086 12.8235 132.952 12.9388 132.809 13.0385C132.665 13.1383 132.512 13.2225 132.352 13.2912C132.193 13.3622 132.027 13.4132 131.859 13.4486C131.689 13.4841 131.517 13.5018 131.345 13.5018C131.17 13.5018 131 13.4841 130.83 13.4486C130.66 13.4132 130.494 13.3622 130.335 13.2912C130.175 13.2225 130.022 13.1383 129.88 13.0385C129.735 12.9388 129.601 12.8235 129.48 12.6972C129.357 12.5686 129.248 12.4289 129.153 12.2804C129.055 12.1297 128.974 11.9701 128.908 11.8038C128.842 11.6376 128.791 11.4647 128.757 11.2896C128.723 11.1122 128.708 10.9327 128.708 10.7531C128.708 10.5713 128.723 10.394 128.757 10.2167C128.791 10.0393 128.842 9.86644 128.908 9.70019C128.974 9.53393 129.055 9.37433 129.153 9.22581C129.248 9.07508 129.357 8.93543 129.48 8.80907C129.601 8.68051 129.735 8.56745 129.88 8.46549C130.022 8.36574 130.175 8.2815 130.335 8.21278C130.494 8.14407 130.66 8.09087 130.83 8.0554C131 8.01993 131.17 8.0022 131.345 8.0022C131.517 8.0022 131.689 8.01993 131.859 8.0554C132.027 8.09087 132.193 8.14407 132.352 8.21278C132.512 8.2815 132.665 8.36574 132.809 8.46549C132.952 8.56745 133.086 8.68051 133.209 8.80907C133.33 8.93543 133.441 9.07508 133.537 9.22581C133.632 9.37433 133.713 9.53393 133.779 9.70019C133.847 9.86644 133.896 10.0393 133.93 10.2167C133.964 10.394 133.981 10.5713 133.981 10.7531Z" fill="white"/>
</mask>
<g mask="url(#mask7_1_988)">
<path d="M128.708 8.0022V13.5018H133.981V8.0022H128.708Z" fill="#48E642"/>
</g>
</g>
<path d="M8.95881 45V36.2727H12.0696C12.7486 36.2727 13.3111 36.3963 13.7571 36.6435C14.2031 36.8906 14.5369 37.2287 14.7585 37.6577C14.9801 38.0838 15.0909 38.5639 15.0909 39.098C15.0909 39.6349 14.9787 40.1179 14.7543 40.5469C14.5327 40.973 14.1974 41.3111 13.7486 41.5611C13.3026 41.8082 12.7415 41.9318 12.0653 41.9318H9.92614V40.8153H11.946C12.375 40.8153 12.723 40.7415 12.9901 40.5938C13.2571 40.4432 13.4531 40.2386 13.5781 39.9801C13.7031 39.7216 13.7656 39.4276 13.7656 39.098C13.7656 38.7685 13.7031 38.4759 13.5781 38.2202C13.4531 37.9645 13.2557 37.7642 12.9858 37.6193C12.7188 37.4744 12.3665 37.402 11.929 37.402H10.2756V45H8.95881ZM19.2074 45.1321C18.5938 45.1321 18.0582 44.9915 17.6009 44.7102C17.1435 44.429 16.7884 44.0355 16.5355 43.5298C16.2827 43.0241 16.1562 42.4332 16.1562 41.7571C16.1562 41.0781 16.2827 40.4844 16.5355 39.9759C16.7884 39.4673 17.1435 39.0724 17.6009 38.7912C18.0582 38.5099 18.5938 38.3693 19.2074 38.3693C19.821 38.3693 20.3565 38.5099 20.8139 38.7912C21.2713 39.0724 21.6264 39.4673 21.8793 39.9759C22.1321 40.4844 22.2585 41.0781 22.2585 41.7571C22.2585 42.4332 22.1321 43.0241 21.8793 43.5298C21.6264 44.0355 21.2713 44.429 20.8139 44.7102C20.3565 44.9915 19.821 45.1321 19.2074 45.1321ZM19.2116 44.0625C19.6094 44.0625 19.9389 43.9574 20.2003 43.7472C20.4616 43.5369 20.6548 43.2571 20.7798 42.9077C20.9077 42.5582 20.9716 42.1733 20.9716 41.7528C20.9716 41.3352 20.9077 40.9517 20.7798 40.6023C20.6548 40.25 20.4616 39.9673 20.2003 39.7543C19.9389 39.5412 19.6094 39.4347 19.2116 39.4347C18.8111 39.4347 18.4787 39.5412 18.2145 39.7543C17.9531 39.9673 17.7585 40.25 17.6307 40.6023C17.5057 40.9517 17.4432 41.3352 17.4432 41.7528C17.4432 42.1733 17.5057 42.5582 17.6307 42.9077C17.7585 43.2571 17.9531 43.5369 18.2145 43.7472C18.4787 43.9574 18.8111 44.0625 19.2116 44.0625ZM24.9006 45L22.9744 38.4545H24.2912L25.5739 43.2614H25.6378L26.9247 38.4545H28.2415L29.5199 43.2401H29.5838L30.858 38.4545H32.1747L30.2528 45H28.9531L27.6236 40.2741H27.5256L26.196 45H24.9006ZM36.0057 45.1321C35.3608 45.1321 34.8054 44.9943 34.3395 44.7188C33.8764 44.4403 33.5185 44.0497 33.2656 43.5469C33.0156 43.0412 32.8906 42.4489 32.8906 41.7699C32.8906 41.0994 33.0156 40.5085 33.2656 39.9972C33.5185 39.4858 33.8707 39.0866 34.3224 38.7997C34.777 38.5128 35.3082 38.3693 35.9162 38.3693C36.2855 38.3693 36.6435 38.4304 36.9901 38.5526C37.3366 38.6747 37.6477 38.8665 37.9233 39.1278C38.1989 39.3892 38.4162 39.7287 38.5753 40.1463C38.7344 40.5611 38.8139 41.0653 38.8139 41.6591V42.1108H33.6108V41.1562H37.5653C37.5653 40.821 37.4972 40.5241 37.3608 40.2656C37.2244 40.0043 37.0327 39.7983 36.7855 39.6477C36.5412 39.4972 36.2543 39.4219 35.9247 39.4219C35.5668 39.4219 35.2543 39.5099 34.9872 39.6861C34.723 39.8594 34.5185 40.0866 34.3736 40.3679C34.2315 40.6463 34.1605 40.9489 34.1605 41.2756V42.0213C34.1605 42.4588 34.2372 42.831 34.3906 43.1378C34.5469 43.4446 34.7642 43.679 35.0426 43.8409C35.321 44 35.6463 44.0795 36.0185 44.0795C36.2599 44.0795 36.4801 44.0455 36.679 43.9773C36.8778 43.9062 37.0497 43.8011 37.1946 43.6619C37.3395 43.5227 37.4503 43.3509 37.527 43.1463L38.733 43.3636C38.6364 43.7187 38.4631 44.0298 38.2131 44.2969C37.9659 44.5611 37.6548 44.767 37.2798 44.9148C36.9077 45.0597 36.483 45.1321 36.0057 45.1321ZM40.2276 45V38.4545H41.4592V39.4943H41.5273C41.6467 39.142 41.8569 38.8651 42.158 38.6634C42.462 38.4588 42.8058 38.3565 43.1893 38.3565C43.2688 38.3565 43.3626 38.3594 43.4705 38.3651C43.5813 38.3707 43.668 38.3778 43.7305 38.3864V39.6051C43.6793 39.5909 43.5884 39.5753 43.4577 39.5582C43.3271 39.5384 43.1964 39.5284 43.0657 39.5284C42.7646 39.5284 42.4961 39.5923 42.2603 39.7202C42.0273 39.8452 41.8427 40.0199 41.7063 40.2443C41.57 40.4659 41.5018 40.7187 41.5018 41.0028V45H40.2276ZM45.1921 45H43.7944L46.935 36.2727H48.4563L51.5969 45H50.1992L47.7319 37.858H47.6637L45.1921 45ZM45.4265 41.5824H49.9606V42.6903H45.4265V41.5824ZM54.174 36.2727V45H52.8572V36.2727H54.174Z" fill="#333333"/>
</svg>
